<mxfile host="app.diagrams.net" modified="2021-07-02T11:17:22.823Z" agent="5.0 (Macintosh; Intel Mac OS X 10_15_7) AppleWebKit/537.36 (KHTML, like Gecko) Chrome/91.0.4472.114 Safari/537.36" etag="uYtPWkAneJWyp51Lsc9b" version="14.8.0" type="github">
  <diagram id="nsgiRls1CiHkSVRRrROP" name="第 1 页">
    <mxGraphModel dx="1907" dy="1073" grid="1" gridSize="10" guides="1" tooltips="1" connect="1" arrows="1" fold="1" page="1" pageScale="1" pageWidth="827" pageHeight="1169" math="0" shadow="0">
      <root>
        <mxCell id="0" />
        <mxCell id="1" parent="0" />
        <mxCell id="0BnKMNFUK4NQUsNiJ99a-2" value="" style="rounded=0;whiteSpace=wrap;html=1;" vertex="1" parent="1">
          <mxGeometry x="130" y="120" width="120" height="280" as="geometry" />
        </mxCell>
        <mxCell id="0BnKMNFUK4NQUsNiJ99a-3" value="" style="shape=flexArrow;endArrow=classic;html=1;" edge="1" parent="1">
          <mxGeometry width="50" height="50" relative="1" as="geometry">
            <mxPoint x="189.5" y="180" as="sourcePoint" />
            <mxPoint x="189.5" y="350" as="targetPoint" />
          </mxGeometry>
        </mxCell>
        <mxCell id="0BnKMNFUK4NQUsNiJ99a-5" value="线性执行" style="text;html=1;strokeColor=none;fillColor=none;align=center;verticalAlign=middle;whiteSpace=wrap;rounded=0;" vertex="1" parent="1">
          <mxGeometry x="130" y="80" width="70" height="30" as="geometry" />
        </mxCell>
        <mxCell id="0BnKMNFUK4NQUsNiJ99a-6" value="协程1" style="rounded=0;whiteSpace=wrap;html=1;" vertex="1" parent="1">
          <mxGeometry x="470" y="120" width="120" height="40" as="geometry" />
        </mxCell>
        <mxCell id="0BnKMNFUK4NQUsNiJ99a-7" value="&lt;span&gt;协程2&lt;/span&gt;" style="rounded=0;whiteSpace=wrap;html=1;" vertex="1" parent="1">
          <mxGeometry x="470" y="180" width="120" height="40" as="geometry" />
        </mxCell>
        <mxCell id="0BnKMNFUK4NQUsNiJ99a-8" value="&lt;span&gt;协程3&lt;/span&gt;" style="rounded=0;whiteSpace=wrap;html=1;" vertex="1" parent="1">
          <mxGeometry x="470" y="240" width="120" height="40" as="geometry" />
        </mxCell>
        <mxCell id="0BnKMNFUK4NQUsNiJ99a-9" value="main&lt;br&gt;协程" style="rounded=0;whiteSpace=wrap;html=1;" vertex="1" parent="1">
          <mxGeometry x="390" y="120" width="60" height="280" as="geometry" />
        </mxCell>
        <mxCell id="0BnKMNFUK4NQUsNiJ99a-10" value="并发执行" style="text;html=1;strokeColor=none;fillColor=none;align=center;verticalAlign=middle;whiteSpace=wrap;rounded=0;" vertex="1" parent="1">
          <mxGeometry x="385" y="80" width="70" height="30" as="geometry" />
        </mxCell>
      </root>
    </mxGraphModel>
  </diagram>
</mxfile>
